<?xml version="1.0" standalone="no"?><!DOCTYPE svg PUBLIC "-//W3C//DTD SVG 1.1//EN" "http://www.w3.org/Graphics/SVG/1.1/DTD/svg11.dtd"><svg t="1545019175899" class="icon" style="" viewBox="0 0 1024 1024" version="1.1" xmlns="http://www.w3.org/2000/svg" p-id="2781" xmlns:xlink="http://www.w3.org/1999/xlink" width="200" height="200"><defs><style type="text/css"></style></defs><path d="M1006.344828 105.931034H17.655172a17.655172 17.655172 0 0 0-17.655172 17.655173v776.827586a17.655172 17.655172 0 0 0 17.655172 17.655173h988.689656a17.655172 17.655172 0 0 0 17.655172-17.655173V123.586207a17.655172 17.655172 0 0 0-17.655172-17.655173z m-17.655173 776.827587H35.310345V141.241379h953.37931v741.517242z" fill="#aaaaaa" p-id="2782"></path><path d="M282.482759 496.781241a98.427586 98.427586 0 0 0 98.321655-98.304c0-54.23669-44.102621-98.33931-98.321655-98.33931s-98.321655 44.102621-98.321656 98.321655A98.427586 98.427586 0 0 0 282.482759 496.781241zM282.482759 335.448276c34.745379 0 63.01131 28.283586 63.01131 63.01131S317.228138 461.470897 282.482759 461.470897s-63.01131-28.265931-63.011311-62.993656S247.737379 335.448276 282.482759 335.448276zM123.586207 812.137931c4.13131 0 8.297931-1.447724 11.652414-4.396138l288.008827-253.563586L605.131034 736.044138a17.637517 17.637517 0 1 0 24.964414-24.964414l-84.868414-84.868414 162.092138-177.505103 198.814897 182.254345a17.655172 17.655172 0 0 0 23.852138-26.04138l-211.862069-194.206896a18.202483 18.202483 0 0 0-12.711724-4.625655 17.690483 17.690483 0 0 0-12.25269 5.737931l-172.914758 189.387034-83.738483-83.738483a17.655172 17.655172 0 0 0-24.152276-0.776827L111.916138 781.223724A17.655172 17.655172 0 0 0 123.586207 812.137931z" fill="#aaaaaa" p-id="2783"></path></svg>